name Run_400 02_newCOP3_v24.mot
datacolumns 19
datarows 25
range 2.77500000 2.79900000
endheader
                time	   R_ground_force_vx	   R_ground_force_vy	   R_ground_force_vz	   R_ground_force_px	   R_ground_force_py	   R_ground_force_pz	   L_ground_force_vx	   L_ground_force_vy	   L_ground_force_vz	   L_ground_force_px	   L_ground_force_py	   L_ground_force_pz	   R_ground_torque_x	   R_ground_torque_y	   R_ground_torque_z	   L_ground_torque_x	   L_ground_torque_y	   L_ground_torque_z	
          2.77500000	          0.00000000	          0.00000000	          0.00000000	          0.00000000	          0.00000000	          0.00000000	        168.58927900	        474.75466900	        -28.93690900	          0.68154800	          0.00000000	         -0.36526500	          0.00000000	          0.00000000	          0.00000000	         -0.00000000	          6.86899700	         -0.00000000	
          2.77600000	          0.00000000	          0.00000000	          0.00000000	          0.00000000	          0.00000000	          0.00000000	        165.02943400	        457.87307700	        -28.46664400	          0.67865700	          0.00000000	         -0.36529300	          0.00000000	          0.00000000	          0.00000000	         -0.00000000	          6.69932200	         -0.00000000	
          2.77700000	          0.00000000	          0.00000000	          0.00000000	          0.00000000	          0.00000000	          0.00000000	        161.44012500	        441.32251000	        -27.96710400	          0.67580000	          0.00000000	         -0.36531800	          0.00000000	          0.00000000	          0.00000000	         -0.00000000	          6.52482600	         -0.00000000	
          2.77800000	          0.00000000	          0.00000000	          0.00000000	          0.00000000	          0.00000000	          0.00000000	        157.83328200	        425.10592700	        -27.43989200	          0.67298000	          0.00000000	         -0.36533900	          0.00000000	          0.00000000	          0.00000000	         -0.00000000	          6.34596200	         -0.00000000	
          2.77900000	          0.00000000	          0.00000000	          0.00000000	          0.00000000	          0.00000000	          0.00000000	        154.21978800	        409.22534200	        -26.88689600	          0.67020100	          0.00000000	         -0.36535200	          0.00000000	          0.00000000	          0.00000000	         -0.00000000	          6.16319000	         -0.00000000	
          2.78000000	          0.00000000	          0.00000000	          0.00000000	          0.00000000	          0.00000000	          0.00000000	        150.60922200	        393.68151900	        -26.31025900	          0.66746800	          0.00000000	         -0.36535800	          0.00000000	          0.00000000	          0.00000000	         -0.00000000	          5.97698100	         -0.00000000	
          2.78100000	          0.00000000	          0.00000000	          0.00000000	          0.00000000	          0.00000000	          0.00000000	        147.00968900	        378.47424300	        -25.71234700	          0.66478300	          0.00000000	         -0.36535500	          0.00000000	          0.00000000	          0.00000000	         -0.00000000	          5.78780700	         -0.00000000	
          2.78200000	          0.00000000	          0.00000000	          0.00000000	          0.00000000	          0.00000000	          0.00000000	        143.42768900	        363.60232500	        -25.09572600	          0.66215000	          0.00000000	         -0.36534100	          0.00000000	          0.00000000	          0.00000000	         -0.00000000	          5.59614700	         -0.00000000	
          2.78300000	          0.00000000	          0.00000000	          0.00000000	          0.00000000	          0.00000000	          0.00000000	        139.86808800	        349.06366000	        -24.46311600	          0.65957400	          0.00000000	         -0.36531600	          0.00000000	          0.00000000	          0.00000000	         -0.00000000	          5.40247800	         -0.00000000	
          2.78400000	          0.00000000	          0.00000000	          0.00000000	          0.00000000	          0.00000000	          0.00000000	        136.33410600	        334.85540800	        -23.81735000	          0.65705700	          0.00000000	         -0.36528100	          0.00000000	          0.00000000	          0.00000000	         -0.00000000	          5.20728200	         -0.00000000	
          2.78500000	          0.00000000	          0.00000000	          0.00000000	          0.00000000	          0.00000000	          0.00000000	        132.82743800	        320.97415200	        -23.16133300	          0.65460400	          0.00000000	         -0.36523500	          0.00000000	          0.00000000	          0.00000000	         -0.00000000	          5.01103600	         -0.00000000	
          2.78600000	          0.00000000	          0.00000000	          0.00000000	          0.00000000	          0.00000000	          0.00000000	        129.34838900	        307.41604600	        -22.49798600	          0.65221800	          0.00000000	         -0.36518000	          0.00000000	          0.00000000	          0.00000000	         -0.00000000	          4.81421600	         -0.00000000	
          2.78700000	          0.00000000	          0.00000000	          0.00000000	          0.00000000	          0.00000000	          0.00000000	        125.89612600	        294.17703200	        -21.83020800	          0.64990200	          0.00000000	         -0.36511700	          0.00000000	          0.00000000	          0.00000000	         -0.00000000	          4.61729300	         -0.00000000	
          2.78800000	          0.00000000	          0.00000000	          0.00000000	          0.00000000	          0.00000000	          0.00000000	        122.46886400	        281.25299100	        -21.16082600	          0.64766000	          0.00000000	         -0.36504800	          0.00000000	          0.00000000	          0.00000000	         -0.00000000	          4.42073100	         -0.00000000	
          2.78900000	          0.00000000	          0.00000000	          0.00000000	          0.00000000	          0.00000000	          0.00000000	        119.06411700	        268.63992300	        -20.49255000	          0.64549600	          0.00000000	         -0.36497700	          0.00000000	          0.00000000	          0.00000000	         -0.00000000	          4.22498700	         -0.00000000	
          2.79000000	          0.00000000	          0.00000000	          0.00000000	          0.00000000	          0.00000000	          0.00000000	        115.67898600	        256.33419800	        -19.82793800	          0.64341200	          0.00000000	         -0.36490600	          0.00000000	          0.00000000	          0.00000000	         -0.00000000	          4.03050700	         -0.00000000	
          2.79100000	          0.00000000	          0.00000000	          0.00000000	          0.00000000	          0.00000000	          0.00000000	        112.31035600	        244.33261100	        -19.16935300	          0.64141200	          0.00000000	         -0.36483900	          0.00000000	          0.00000000	          0.00000000	         -0.00000000	          3.83772800	         -0.00000000	
          2.79200000	          0.00000000	          0.00000000	          0.00000000	          0.00000000	          0.00000000	          0.00000000	        108.95511600	        232.63253800	        -18.51893600	          0.63950000	          0.00000000	         -0.36477900	          0.00000000	          0.00000000	          0.00000000	         -0.00000000	          3.64707200	         -0.00000000	
          2.79300000	          0.00000000	          0.00000000	          0.00000000	          0.00000000	          0.00000000	          0.00000000	        105.61030600	        221.23205600	        -17.87857800	          0.63767700	          0.00000000	         -0.36473200	          0.00000000	          0.00000000	          0.00000000	         -0.00000000	          3.45895000	         -0.00000000	
          2.79400000	          0.00000000	          0.00000000	          0.00000000	          0.00000000	          0.00000000	          0.00000000	        102.27326200	        210.12997400	        -17.24991200	          0.63594800	          0.00000000	         -0.36470000	          0.00000000	          0.00000000	          0.00000000	         -0.00000000	          3.27375600	         -0.00000000	
          2.79500000	          0.00000000	          0.00000000	          0.00000000	          0.00000000	          0.00000000	          0.00000000	         98.94171900	        199.32589700	        -16.63428500	          0.63431600	          0.00000000	         -0.36469000	          0.00000000	          0.00000000	          0.00000000	         -0.00000000	          3.09186800	         -0.00000000	
          2.79600000	          0.00000000	          0.00000000	          0.00000000	          0.00000000	          0.00000000	          0.00000000	         95.61384600	        188.82016000	        -16.03276600	          0.63278500	          0.00000000	         -0.36470500	          0.00000000	          0.00000000	          0.00000000	         -0.00000000	          2.91364600	         -0.00000000	
          2.79700000	          0.00000000	          0.00000000	          0.00000000	          0.00000000	          0.00000000	          0.00000000	         92.28831500	        178.61386100	        -15.44614600	          0.63135800	          0.00000000	         -0.36475000	          0.00000000	          0.00000000	          0.00000000	         -0.00000000	          2.73943300	         -0.00000000	
          2.79800000	          0.00000000	          0.00000000	          0.00000000	          0.00000000	          0.00000000	          0.00000000	         88.96432500	        168.70872500	        -14.87493900	          0.63004300	          0.00000000	         -0.36483000	          0.00000000	          0.00000000	          0.00000000	         -0.00000000	          2.56955100	         -0.00000000	
          2.79900000	          0.00000000	          0.00000000	          0.00000000	          0.00000000	          0.00000000	          0.00000000	         85.64161700	        159.10697900	        -14.31940600	          0.62884400	          0.00000000	         -0.36495000	          0.00000000	          0.00000000	          0.00000000	         -0.00000000	          2.40430000	         -0.00000000	
